Run_50002
nRows=4
nColumns=164

# SIMM Motion File Header:
name Run_50002
datacolumns 164
datarows 4
otherdata 1
range 4.05000000 4.07500000
endheader
time	pelvis_tilt	pelvis_list	pelvis_rotation	pelvis_tx	pelvis_ty	pelvis_tz	hip_flexion_r	hip_adduction_r	hip_rotation_r	knee_angle_r	ankle_angle_r	hip_flexion_l	hip_adduction_l	hip_rotation_l	knee_angle_l	ankle_angle_l	lumbar_extension	lumbar_bending	lumbar_rotation	arm_flex_r	arm_add_r	arm_rot_r	elbow_flex_r	pro_sup_r	arm_flex_l	arm_add_l	arm_rot_l	elbow_flex_l	pro_sup_l	subtalar_angle_r	mtp_angle_r	subtalar_angle_l	mtp_angle_l	wrist_flex_r	wrist_dev_r	wrist_flex_l	wrist_dev_l	LASI_tx	LASI_ty	LASI_tz	RASI_tx	RASI_ty	RASI_tz	LPSI_tx	LPSI_ty	LPSI_tz	RPSI_tx	RPSI_ty	RPSI_tz	RTH1_tx	RTH1_ty	RTH1_tz	RTH2_tx	RTH2_ty	RTH2_tz	RTH3_tx	RTH3_ty	RTH3_tz	LTH1_tx	LTH1_ty	LTH1_tz	LTH2_tx	LTH2_ty	LTH2_tz	LTH3_tx	LTH3_ty	LTH3_tz	RTB1_tx	RTB1_ty	RTB1_tz	RTB2_tx	RTB2_ty	RTB2_tz	RTB3_tx	RTB3_ty	RTB3_tz	LTB1_tx	LTB1_ty	LTB1_tz	LTB2_tx	LTB2_ty	LTB2_tz	LTB3_tx	LTB3_ty	LTB3_tz	RCAL_tx	RCAL_ty	RCAL_tz	RTOE_tx	RTOE_ty	RTOE_tz	RMT5_tx	RMT5_ty	RMT5_tz	LCAL_tx	LCAL_ty	LCAL_tz	LTOE_tx	LTOE_ty	LTOE_tz	LMT5_tx	LMT5_ty	LMT5_tz	LACR_tx	LACR_ty	LACR_tz	RACR_tx	RACR_ty	RACR_tz	CLAV_tx	CLAV_ty	CLAV_tz	C7_tx	C7_ty	C7_tz	RUA1_tx	RUA1_ty	RUA1_tz	RUA2_tx	RUA2_ty	RUA2_tz	RUA3_tx	RUA3_ty	RUA3_tz	RLEL_tx	RLEL_ty	RLEL_tz	RMEL_tx	RMEL_ty	RMEL_tz	LUA1_tx	LUA1_ty	LUA1_tz	LUA2_tx	LUA2_ty	LUA2_tz	LUA3_tx	LUA3_ty	LUA3_tz	LLEL_tx	LLEL_ty	LLEL_tz	LMEL_tx	LMEL_ty	LMEL_tz	RFAsuperior_tx	RFAsuperior_ty	RFAsuperior_tz	RFAradius_tx	RFAradius_ty	RFAradius_tz	RFAulna_tx	RFAulna_ty	RFAulna_tz	LFAsuperior_tx	LFAsuperior_ty	LFAsuperior_tz	LFAradius_tx	LFAradius_ty	LFAradius_tz	LFAulna_tx	LFAulna_ty	LFAulna_tz
      4.05000000	     -1.79580644	      4.44512061	      5.55519597	      0.78751576	      0.93572574	     -0.38057931	     13.64695068	     -8.17779915	     -5.53296636	   -137.15969955	     -0.60452604	     22.85370816	     10.25053166	      4.01905536	    -46.99508336	     19.39082967	    -15.08939207	     -8.48562257	     -3.89124418	    -20.80567252	    -23.03444536	      3.00431859	     94.12902722	     80.48674516	     -1.19678188	    -44.97232747	    -14.60402707	    123.45219396	     88.85060521	      0.00000000	      0.00000000	      0.00000000	      0.00000000	      0.00000000	      0.00000000	      0.00000000	      0.00000000	      0.79244456	      0.96467282	     -0.50620465	      0.80263246	      0.95551021	     -0.25018680	      0.62307193	      0.98803145	     -0.40180794	      0.63059541	      0.98747160	     -0.31517929	      0.77160959	      0.76589949	     -0.20944430	      0.84451037	      0.65404094	     -0.22426094	      0.78219712	      0.54090773	     -0.20427897	      0.77294233	      0.82673338	     -0.54675041	      0.85489182	      0.73152671	     -0.52834525	      0.82271948	      0.57962306	     -0.52208569	      0.67425162	      0.46615169	     -0.27531624	      0.63745717	      0.53736543	     -0.22475420	      0.53516107	      0.57749449	     -0.29706092	      0.86126312	      0.34894319	     -0.43996266	      0.78335154	      0.26197218	     -0.48752342	      0.75837348	      0.18727011	     -0.41351272	      0.48890847	      0.74324807	     -0.32038085	      0.34687905	      0.57487720	     -0.30172839	      0.35701842	      0.62096719	     -0.21846180	      0.59522234	      0.10982795	     -0.42316639	      0.80962285	      0.07328507	     -0.39960669	      0.78436184	      0.05804331	     -0.49135185	      0.78904459	      1.39805080	     -0.59608010	      0.80426247	      1.41988692	     -0.22174277	      0.89352104	      1.35738718	     -0.37971592	      0.76658854	      1.45685084	     -0.41775784	      0.76567989	      1.32281523	     -0.14998634	      0.76779521	      1.25009886	     -0.14694595	      0.67473456	      1.25856682	     -0.10530314	      0.69055210	      1.17271350	     -0.05767012	      0.63286379	      1.15481263	     -0.12056467	      0.75244711	      1.33143845	     -0.65353045	      0.69653280	      1.25721636	     -0.64642511	      0.73918424	      1.25280863	     -0.70994157	      0.72282769	      1.16095329	     -0.77308111	      0.70526110	      1.09446220	     -0.71872265	      0.75724211	      1.11985176	     -0.07571672	      0.86517747	      1.01577806	     -0.15498705	      0.81749087	      0.97820429	     -0.12147919	      0.79239568	      1.17970990	     -0.76674318	      0.94685356	      1.18893677	     -0.67784492	      0.95382539	      1.13940184	     -0.72544181
      4.05833300	     -1.75899537	      4.26848454	      5.91565027	      0.78559172	      0.93765587	     -0.38165069	     18.49949810	     -8.34723555	     -5.22721807	   -138.67756344	      0.05274122	     18.98068506	      9.98022868	      4.82942865	    -45.33746885	     21.24613980	    -15.30198107	     -8.06442649	     -5.19737210	    -22.61404834	    -22.61302418	      1.49371597	     92.13945959	     79.59572699	      3.14680057	    -43.75045396	    -12.10991887	    121.95623535	     90.42384419	      0.00000000	      0.00000000	      0.00000000	      0.00000000	      0.00000000	      0.00000000	      0.00000000	      0.00000000	      0.78996745	      0.96627647	     -0.50786443	      0.80011494	      0.95844546	     -0.25052608	      0.62150968	      0.99082154	     -0.40356883	      0.62857238	      0.98955425	     -0.31687114	      0.77854660	      0.76990972	     -0.20981338	      0.86350783	      0.66438313	     -0.22668425	      0.80912602	      0.54781551	     -0.20381406	      0.76561777	      0.82529768	     -0.54737584	      0.84006746	      0.72365783	     -0.52993928	      0.79980899	      0.57467558	     -0.52163977	      0.70690677	      0.46802164	     -0.27519553	      0.66742174	      0.53651759	     -0.22383802	      0.56252635	      0.57191841	     -0.29676506	      0.82831550	      0.34112879	     -0.43952023	      0.74744525	      0.25706851	     -0.48663283	      0.71879861	      0.18460394	     -0.41348999	      0.50470853	      0.73691695	     -0.31578151	      0.37600083	      0.55790049	     -0.30401728	      0.38215055	      0.60147046	     -0.21902606	      0.55321167	      0.11112757	     -0.42335456	      0.76734022	      0.07287387	     -0.39967064	      0.74176436	      0.05802990	     -0.49167508	      0.79331548	      1.39738679	     -0.59608998	      0.79934547	      1.42273098	     -0.22198779	      0.89255148	      1.36062706	     -0.37681310	      0.76643966	      1.45814993	     -0.41840750	      0.75742915	      1.32725614	     -0.15000014	      0.75873703	      1.25477051	     -0.14554220	      0.66296084	      1.26458530	     -0.11018626	      0.67558909	      1.17934217	     -0.05905056	      0.62128261	      1.16157986	     -0.12487332	      0.76004445	      1.32862009	     -0.65326110	      0.70788128	      1.25142233	     -0.64410117	      0.75038382	      1.24852146	     -0.70783063	      0.74105510	      1.15501087	     -0.77053882	      0.72454597	      1.08847710	     -0.71616089	      0.74089717	      1.12262613	     -0.07323425	      0.84749397	      1.01066155	     -0.14308964	      0.79604584	      0.97601013	     -0.11220185	      0.81045725	      1.17545263	     -0.76156230	      0.96167252	      1.18999092	     -0.66934432	      0.97120674	      1.14033717	     -0.71676133
      4.06666700	     -1.71107291	      3.94391884	      6.26694632	      0.78421135	      0.94009658	     -0.38309920	     23.23568739	     -8.33503046	     -5.05334355	   -139.07525795	      0.78259058	     14.88502901	      9.44998445	      5.63530945	    -43.18175842	     22.50529716	    -15.39911892	     -7.40672259	     -6.49848813	    -24.66862846	    -22.47373199	     -0.05779916	     91.11567443	     78.12472565	      6.79669995	    -42.33958003	    -10.03342401	    120.69701505	     91.54704754	      0.00000000	      0.00000000	      0.00000000	      0.00000000	      0.00000000	      0.00000000	      0.00000000	      0.00000000	      0.78783341	      0.96760595	     -0.50848062	      0.79857175	      0.96136572	     -0.25160242	      0.62037113	      0.99338464	     -0.40591856	      0.62706391	      0.99126287	     -0.31951901	      0.78616422	      0.77629669	     -0.21038403	      0.88188807	      0.67804005	     -0.22962581	      0.83588669	      0.55788019	     -0.20414893	      0.75689637	      0.82373302	     -0.54815377	      0.82468677	      0.71624940	     -0.53156360	      0.77738974	      0.57149946	     -0.52215508	      0.73893329	      0.47155587	     -0.27584095	      0.69490838	      0.53651843	     -0.22439283	      0.58791620	      0.56527543	     -0.29768157	      0.79364746	      0.33567598	     -0.43870900	      0.71093408	      0.25420063	     -0.48643681	      0.67915753	      0.18347384	     -0.41370221	      0.51581234	      0.72627525	     -0.31278152	      0.40474145	      0.53588580	     -0.30623790	      0.40623205	      0.57751124	     -0.21996744	      0.51166782	      0.11319944	     -0.42344469	      0.72533923	      0.07264125	     -0.39979915	      0.69937214	      0.05822214	     -0.49189075	      0.79783196	      1.39806377	     -0.59536656	      0.79421845	      1.42670157	     -0.22211582	      0.89160468	      1.36473319	     -0.37415672	      0.76603197	      1.46009088	     -0.41852274	      0.74861401	      1.33321348	     -0.15000334	      0.74908843	      1.26093213	     -0.14405299	      0.65111537	      1.27221060	     -0.11475607	      0.66032044	      1.18768438	     -0.06023838	      0.60975086	      1.16993775	     -0.12904385	      0.76796622	      1.32725325	     -0.65248421	      0.71894510	      1.24764637	     -0.64138696	      0.76122019	      1.24585241	     -0.70511114	      0.75807640	      1.15113646	     -0.76687171	      0.74282522	      1.08489615	     -0.71203412	      0.72406706	      1.12776243	     -0.07029242	      0.83001904	      1.01000175	     -0.13217653	      0.77529252	      0.97756346	     -0.10483361	      0.82749290	      1.17300848	     -0.75594049	      0.97566266	      1.19284038	     -0.66002023	      0.98756937	      1.14277515	     -0.70668244
      4.07500000	     -1.73362867	      3.44393992	      6.66605948	      0.78351403	      0.94301258	     -0.38485605	     27.82772609	     -8.13052827	     -5.10371495	   -138.35879096	      1.49832030	     10.72269169	      8.63528394	      6.51064371	    -40.61251535	     22.92779132	    -15.30283722	     -6.50155425	     -7.87778665	    -26.91506472	    -22.57762742	     -1.64592013	     90.90299271	     76.36429777	      9.60618429	    -40.85412808	     -8.46615733	    119.76852075	     92.13584294	      0.00000000	      0.00000000	      0.00000000	      0.00000000	      0.00000000	      0.00000000	      0.00000000	      0.00000000	      0.78634921	      0.96857057	     -0.50908910	      0.79817101	      0.96469644	     -0.25311928	      0.61990777	      0.99602875	     -0.40830599	      0.62644412	      0.99331048	     -0.32259548	      0.79420881	      0.78471317	     -0.21107088	      0.89870552	      0.69409366	     -0.23263300	      0.86150521	      0.57053380	     -0.20532289	      0.74746087	      0.82267386	     -0.54880480	      0.80986358	      0.71078308	     -0.53273986	      0.75516952	      0.57000159	     -0.52325460	      0.76995130	      0.47637344	     -0.27759289	      0.72008726	      0.53686609	     -0.22623364	      0.61234554	      0.55685499	     -0.29954485	      0.75823625	      0.33288292	     -0.43830959	      0.67407869	      0.25370692	     -0.48707789	      0.63986066	      0.18407997	     -0.41424159	      0.52362242	      0.71060375	     -0.31151132	      0.43415894	      0.50927010	     -0.30820113	      0.43022862	      0.54944109	     -0.22117070	      0.47093233	      0.11667508	     -0.42389623	      0.68383402	      0.07249353	     -0.40010728	      0.65719228	      0.05836018	     -0.49199448	      0.80255553	      1.40009619	     -0.59428171	      0.78911308	      1.43156076	     -0.22219043	      0.89101324	      1.36918357	     -0.37131284	      0.76582967	      1.46297641	     -0.41842856	      0.73957835	      1.34049438	     -0.15017029	      0.73901673	      1.26855646	     -0.14254546	      0.63939757	      1.28117233	     -0.11893579	      0.64488703	      1.19736451	     -0.06147673	      0.59826239	      1.17962322	     -0.13294931	      0.77599191	      1.32740962	     -0.65132239	      0.72935525	      1.24607692	     -0.63884488	      0.77182410	      1.24479152	     -0.70201266	      0.77379467	      1.14907253	     -0.76237650	      0.75978533	      1.08353654	     -0.70670855	      0.70698980	      1.13498446	     -0.06698767	      0.81323325	      1.01339420	     -0.12221870	      0.75580319	      0.98254411	     -0.09892496	      0.84320922	      1.17232800	     -0.75014346	      0.98842778	      1.19739027	     -0.65017062	      1.00258462	      1.14662376	     -0.69550211
